# xmcd
#
# Track frame offsets:
#	150
#	16155
#	30743
#	49053
#	65640
#	83175
#	98965
#	115840
#	128793
#
# Disc length: 1896
#
# Revision: 1
# Processed by: cddbd v1.5.1PL0 Copyright (c) Steve Scherf et al.
# Submitted via: uFREEDB 1.6.0
# Normalized: r0:DSETVAR2,TDELIM( - )
#
DISCID=71076609
DTITLE=Various Artist - Promo Vol 11A
DYEAR=1991
DGENRE=Country
TTITLE0=The Bama Band - Boys like Me
TTITLE1=Eddie Rabbitt - Hang Up The Phone
TTITLE2=Marty Brown - High And Dry
TTITLE3=T.G. Sheppard - It's One A.M.
TTITLE4=Ricky Van Shelton - Keep It Between The Lines
TTITLE5=Ricky Skaggs - Life's Tpp Long
TTITLE6=Trisha Yearwood - Like We Never Had A Broken Heart
TTITLE7=Pam Tillis - Put Yourself In My Place
TTITLE8=Conway Twitty - She's Got A Man On Her Mind
EXTD=
EXTT0=
EXTT1=
EXTT2=
EXTT3=
EXTT4=
EXTT5=
EXTT6=
EXTT7=
EXTT8=
PLAYORDER=
